<svg xmlns="http://www.w3.org/2000/svg" xmlns:xlink="http://www.w3.org/1999/xlink"><symbol id="hired" viewBox="0 0 35 35"><g fill="none"><path d="M31.264 27.893a3.132 3.132 0 00.597-1.842v-4.108a.684.684 0 00-.684-.683h-3.055a2.564 2.564 0 00-2.561 2.561v2.23c0 .687.222 1.323.596 1.841a4.402 4.402 0 00-1.336.445 5.817 5.817 0 00-4.294-2.56l-.021-.005a4.02 4.02 0 001.03-2.69V17.5a.684.684 0 00-.684-.684H16.7a3.24 3.24 0 00-3.236 3.236v3.03a4.02 4.02 0 001.03 2.69l-.021.005a5.816 5.816 0 00-4.294 2.56c-.42-.22-.87-.369-1.337-.445a3.132 3.132 0 00.597-1.84v-4.109a.684.684 0 00-.684-.683H5.7a2.564 2.564 0 00-2.56 2.561v2.23c0 .688.221 1.324.596 1.842A4.464 4.464 0 000 32.291v2.025c0 .378.306.684.684.684h33.632a.684.684 0 00.684-.684v-2.025a4.464 4.464 0 00-3.736-4.398zM4.506 23.821c0-.658.536-1.194 1.194-1.194h2.372v.832a.74.74 0 01-.74.74H4.506v-.378zm0 1.746h2.826c.26 0 .51-.048.74-.135v.62c0 .982-.8 1.782-1.783 1.782-.983 0-1.783-.8-1.783-1.783v-.484zm2.224 3.634l-.44.44-.442-.44h.882zm2.468 2.363v2.069h-7.83V32.29a3.095 3.095 0 012.588-3.049l1.85 1.85a.684.684 0 00.966 0l1.85-1.85c.327.053.642.158.934.312a5.784 5.784 0 00-.358 2.01zm8.302-5.813a2.672 2.672 0 01-2.668-2.668v-.904h4.085c.453 0 .88-.115 1.252-.319v1.223a2.672 2.672 0 01-2.669 2.669zm1.192 1.368L17.5 28.31l-1.192-1.191h2.384zm-3.86-7.067a1.87 1.87 0 011.868-1.868h3.469v1.377c0 .69-.562 1.251-1.252 1.251H14.83v-.76zm9.603 13.58h-13.87v-1.366h4.451a.684.684 0 100-1.368h-4.4a4.455 4.455 0 013.8-3.738l2.6 2.6a.682.682 0 00.967 0l2.601-2.6a4.451 4.451 0 013.85 4.404v2.069zm2.493-9.81c0-.66.536-1.195 1.194-1.195h2.372v.832a.74.74 0 01-.74.74h-2.826v-.378zm0 1.745h2.825c.26 0 .51-.048.74-.135v.62c0 .982-.799 1.782-1.782 1.782s-1.783-.8-1.783-1.783v-.484zm2.224 3.634l-.441.44-.44-.44h.88zm-3.35 4.432v-2.069c0-.706-.127-1.383-.358-2.01.292-.154.606-.26.933-.312l1.85 1.85a.684.684 0 00.967 0l1.85-1.85a3.095 3.095 0 012.589 3.05v1.34h-7.831zM20.869 4.466a.684.684 0 00-.967 0l-3.354 3.355-1.45-1.45a.684.684 0 10-.967.967l1.933 1.933a.684.684 0 00.967 0l3.838-3.838a.684.684 0 000-.966z" fill="#00B2FF"/><path d="M20.295.593a.684.684 0 00-.557 1.248 5.51 5.51 0 013.264 5.028A5.508 5.508 0 0117.5 12.37a5.508 5.508 0 01-5.502-5.501 5.515 5.515 0 013.24-5.017.683.683 0 10-.563-1.246 6.885 6.885 0 00-4.044 6.263 6.877 6.877 0 006.869 6.868 6.876 6.876 0 006.869-6.868A6.88 6.88 0 0020.295.593z" fill="#00B2FF"/><path d="M17.524 0H17.5a.684.684 0 000 1.367h.021A.684.684 0 0017.524 0zm.459 31.099a.688.688 0 00-.483-.2.689.689 0 00-.483.2.689.689 0 00-.2.483.684.684 0 00.683.683.688.688 0 00.684-.683.689.689 0 00-.2-.483z" fill="#00B2FF"/></g></symbol><symbol id="tag" viewBox="0 0 35 35"><g fill="none"><path d="M11.07 8.585a.689.689 0 00-.482-.2.689.689 0 00-.484.2.69.69 0 00-.2.483.686.686 0 001.167.483.69.69 0 00.2-.483.69.69 0 00-.2-.483z" fill="#00B2FF"/><path d="M34.8 2.859l-.845-.847.845-.845A.684.684 0 0033.833.2l-.844.845-.833-.834a.683.683 0 00-.484-.2L20.102.003H20.1c-.913 0-1.772.356-2.418 1.002L11.908 6.78a.684.684 0 00.967.967l5.774-5.774A2.04 2.04 0 0120.1 1.37h.002l11.286.007.634.634-2.537 2.537a2.805 2.805 0 00-3.419.422 2.783 2.783 0 00-.82 1.98c0 .748.291 1.452.82 1.98a2.792 2.792 0 001.98.82c.717 0 1.434-.273 1.98-.82a2.806 2.806 0 00.425-3.415l2.537-2.537.645.646-.007 11.273a2.04 2.04 0 01-.601 1.451L16.344 33.033a2.04 2.04 0 01-1.452.601 2.04 2.04 0 01-1.452-.601L1.97 21.559a2.04 2.04 0 01-.602-1.452c0-.548.214-1.064.602-1.452l7.368-7.37a.684.684 0 00-.966-.966L1 17.689a3.399 3.399 0 00-1 2.417c0 .914.356 1.773 1.002 2.42L12.473 34a3.41 3.41 0 002.419 1 3.41 3.41 0 002.419-1l16.68-16.684a3.4 3.4 0 001.003-2.417L35 3.342a.683.683 0 00-.2-.483zm-5.74 5.106c-.271.27-.631.42-1.014.42s-.742-.15-1.013-.42a1.435 1.435 0 011.013-2.447c.139 0 .277.02.41.06l-.789.789a.684.684 0 00.967.967l.787-.787a1.434 1.434 0 01-.361 1.418z" fill="#00B2FF"/><path d="M29.2 13.764l-7.966-7.967a2.71 2.71 0 00-3.828 0L4.799 18.406a2.69 2.69 0 00-.793 1.914c0 .723.282 1.403.793 1.914l7.967 7.968c.51.51 1.19.793 1.914.793.723 0 1.402-.282 1.913-.793L29.2 17.592a2.69 2.69 0 00.793-1.913 2.69 2.69 0 00-.793-1.915zm-.966 2.862L15.627 29.235a1.33 1.33 0 01-.947.392 1.33 1.33 0 01-.947-.392l-7.967-7.968a1.33 1.33 0 01-.392-.947c0-.358.139-.695.392-.948L18.373 6.764c.261-.262.604-.392.947-.392.343 0 .686.13.947.392l7.966 7.967c.253.253.393.59.393.948 0 .357-.14.694-.393.947z" fill="#00B2FF"/><path d="M22.29 13.677a.684.684 0 00-.966-.967l-.394.394c-1.051-.65-2.4-.563-3.252.29a2.48 2.48 0 00-.716 1.9 2.876 2.876 0 00.853 1.892c.55.55.611 1.384.137 1.859-.475.474-1.309.413-1.859-.137s-.61-1.384-.136-1.859a.684.684 0 00-.967-.967c-.853.853-.94 2.202-.29 3.253l-.468.467a.684.684 0 00.968.967l.467-.467c.46.283.975.427 1.482.427.652 0 1.29-.238 1.77-.717 1.007-1.008.946-2.709-.137-3.792a1.512 1.512 0 01-.454-.991 1.13 1.13 0 01.317-.868c.474-.475 1.308-.413 1.858.137s.611 1.384.137 1.858a.684.684 0 00.966.967c.853-.852.94-2.201.29-3.252l.394-.394zm-6.918 11.335L11.86 21.5a.684.684 0 00-.967.967l3.51 3.512a.682.682 0 00.968 0 .684.684 0 000-.967zm-5.384-5.385a.688.688 0 00-.483-.2.69.69 0 00-.484.2.689.689 0 00-.2.484c0 .18.073.356.2.483a.687.687 0 001.168-.483.688.688 0 00-.201-.484z" fill="#00B2FF"/></g></symbol></svg>